<?xml version="1.0"?>
<svg xmlns="http://www.w3.org/2000/svg" viewBox="0 0 320 420" width="320" height="420" preserveAspectRatio="xMidYMid meet">
  <defs>
    <pattern id="ttHalftone" x="0" y="0" width="6" height="6" patternUnits="userSpaceOnUse">
      <circle cx="3" cy="3" r="0.8" fill="#ffffff" opacity="0.12"></circle>
    </pattern>
    <pattern id="ttSpeed" x="0" y="0" width="16" height="16" patternUnits="userSpaceOnUse" patternTransform="rotate(35)">
      <rect x="0" y="0" width="0.8" height="16" fill="#ffffff" opacity="0.06"></rect>
    </pattern>

    <radialGradient id="ttBgGrad" cx="50%" cy="0%" r="100%">
      <stop offset="0%" stop-color="#1a2040" stop-opacity="1"></stop>
      <stop offset="100%" stop-color="#070912" stop-opacity="1"></stop>
    </radialGradient>

    <radialGradient id="ttCornerGlow" cx="100%" cy="100%" r="70%">
      <stop offset="0%" stop-color="#FF2D92" stop-opacity="0.30"></stop>
      <stop offset="100%" stop-color="#FF2D92" stop-opacity="0"></stop>
    </radialGradient>

    <filter id="ttPanelShadow" x="-10%" y="-10%" width="120%" height="120%">
      <feDropShadow dx="0" dy="3" stdDeviation="4" flood-color="#000000" flood-opacity="0.6"></feDropShadow>
    </filter>
    <filter id="ttHardOutline" x="-10%" y="-10%" width="120%" height="120%">
      <feDropShadow dx="2" dy="2" stdDeviation="0" flood-color="#000000" flood-opacity="1"></feDropShadow>
    </filter>
  </defs>

  
  <rect x="0" y="0" width="320" height="420" rx="14" ry="14" fill="url(#ttBgGrad)"></rect>
  <rect x="0" y="0" width="320" height="420" rx="14" ry="14" fill="url(#ttCornerGlow)"></rect>
  <rect x="0" y="0" width="320" height="420" rx="14" ry="14" fill="url(#ttSpeed)"></rect>

  
  <rect x="0" y="0" width="160" height="120" fill="url(#ttHalftone)" opacity="0.7"></rect>

  
  <rect x="2" y="2" width="316" height="416" rx="12" ry="12" fill="none" stroke="#000000" stroke-width="4"></rect>
  <rect x="6" y="6" width="308" height="408" rx="9" ry="9" fill="none" stroke="#FFD60A" stroke-width="1.5" opacity="0.7"></rect>

  
  <g stroke="#ffffff" stroke-width="0.8" opacity="0.7">
    <line x1="295" y1="14" x2="295" y2="24"></line>
    <line x1="290" y1="19" x2="300" y2="19"></line>
    <line x1="14" y1="405" x2="14" y2="412"></line>
    <line x1="10" y1="408" x2="18" y2="408"></line>
  </g>
  <circle cx="280" cy="395" r="1.3" fill="#00D4FF" opacity="0.8"></circle>
  <circle cx="20" cy="60" r="1" fill="#FFD60A" opacity="0.8"></circle>

  
  <g filter="url(#ttPanelShadow)">
    
    <polygon points="14,16 290,16 304,26 304,40 14,40" fill="#FFD60A" stroke="#000000" stroke-width="2.5"></polygon>
    
    <rect x="14" y="16" width="6" height="24" fill="#FF3B30"></rect>
  </g>

  
  <g filter="url(#ttPanelShadow)">
    <rect x="14" y="62" width="134" height="200" rx="6" ry="6" fill="#0d1226" stroke="#000000" stroke-width="3"></rect>
    <rect x="18" y="66" width="126" height="192" rx="3" ry="3" fill="none" stroke="#00D4FF" stroke-width="1.5"></rect>
    
    <rect x="22" y="70" width="118" height="184" rx="2" ry="2" fill="#11172e" stroke="#2a3358" stroke-width="1" stroke-dasharray="3 4"></rect>
  </g>
  
  <g transform="translate(20, 56)">
    <polygon points="0,0 56,0 64,12 0,12" fill="#00D4FF" stroke="#000" stroke-width="1.5"></polygon>
    <text x="6" y="9" font-family="&#39;Bangers&#39;,&#39;Anton&#39;,&#39;Impact&#39;,&#39;Arial Black&#39;,sans-serif" font-size="9" fill="#0a0e1a" letter-spacing="1.5">
      POSTER
    </text>
  </g>
  
  <g fill="#FFD60A" stroke="#000" stroke-width="1">
    <circle cx="22" cy="70" r="1.7"></circle>
    <circle cx="140" cy="70" r="1.7"></circle>
    <circle cx="22" cy="254" r="1.7"></circle>
    <circle cx="140" cy="254" r="1.7"></circle>
  </g>

  
  
  <g filter="url(#ttPanelShadow)">
    <rect x="156" y="62" width="150" height="46" rx="5" ry="5" fill="#0d1226" stroke="#000000" stroke-width="2.5"></rect>
    <rect x="159" y="65" width="144" height="40" rx="3" ry="3" fill="none" stroke="#FFD60A" stroke-width="1.2"></rect>
  </g>
  <text x="164" y="76" font-family="&#39;Bangers&#39;,&#39;Anton&#39;,&#39;Impact&#39;,&#39;Arial Black&#39;,sans-serif" font-size="9" fill="#FFD60A" letter-spacing="1.8">
    DURATION
  </text>
  <rect x="164" y="80" width="135" height="20" rx="2" ry="2" fill="#11172e" stroke="#2a3358" stroke-width="0.8" stroke-dasharray="3 3"></rect>

  
  <g filter="url(#ttPanelShadow)">
    <rect x="156" y="112" width="150" height="46" rx="5" ry="5" fill="#0d1226" stroke="#000000" stroke-width="2.5"></rect>
    <rect x="159" y="115" width="144" height="40" rx="3" ry="3" fill="none" stroke="#FF3B30" stroke-width="1.2"></rect>
  </g>
  <text x="164" y="126" font-family="&#39;Bangers&#39;,&#39;Anton&#39;,&#39;Impact&#39;,&#39;Arial Black&#39;,sans-serif" font-size="9" fill="#FF3B30" letter-spacing="1.8">
    DIRECTOR
  </text>
  <rect x="164" y="130" width="135" height="20" rx="2" ry="2" fill="#11172e" stroke="#2a3358" stroke-width="0.8" stroke-dasharray="3 3"></rect>

  
  <g filter="url(#ttPanelShadow)">
    <rect x="156" y="162" width="150" height="46" rx="5" ry="5" fill="#0d1226" stroke="#000000" stroke-width="2.5"></rect>
    <rect x="159" y="165" width="144" height="40" rx="3" ry="3" fill="none" stroke="#00D4FF" stroke-width="1.2"></rect>
  </g>
  <text x="164" y="176" font-family="&#39;Bangers&#39;,&#39;Anton&#39;,&#39;Impact&#39;,&#39;Arial Black&#39;,sans-serif" font-size="9" fill="#00D4FF" letter-spacing="1.8">
    BUDGET
  </text>
  <rect x="164" y="180" width="135" height="20" rx="2" ry="2" fill="#11172e" stroke="#2a3358" stroke-width="0.8" stroke-dasharray="3 3"></rect>

  
  <g filter="url(#ttPanelShadow)">
    <rect x="156" y="212" width="150" height="46" rx="5" ry="5" fill="#0d1226" stroke="#000000" stroke-width="2.5"></rect>
    <rect x="159" y="215" width="144" height="40" rx="3" ry="3" fill="none" stroke="#FF2D92" stroke-width="1.2"></rect>
  </g>
  <text x="164" y="226" font-family="&#39;Bangers&#39;,&#39;Anton&#39;,&#39;Impact&#39;,&#39;Arial Black&#39;,sans-serif" font-size="9" fill="#FF2D92" letter-spacing="1.8">
    GROSS EARNINGS
  </text>
  <rect x="164" y="230" width="135" height="20" rx="2" ry="2" fill="#11172e" stroke="#2a3358" stroke-width="0.8" stroke-dasharray="3 3"></rect>

  
  
  <rect x="14" y="270" width="290" height="6" fill="url(#ttHalftone)" opacity="0.6"></rect>

  
  <g filter="url(#ttPanelShadow)">
    <rect x="14" y="284" width="142" height="120" rx="6" ry="6" fill="#0d1226" stroke="#000000" stroke-width="3"></rect>
    <rect x="18" y="288" width="134" height="112" rx="4" ry="4" fill="none" stroke="#FF3B30" stroke-width="1.5"></rect>
  </g>
  
  <g transform="translate(22, 278)">
    <polygon points="0,0 78,0 86,14 0,14" fill="#FF3B30" stroke="#000" stroke-width="1.5"></polygon>
    <text x="6" y="10" font-family="&#39;Bangers&#39;,&#39;Anton&#39;,&#39;Impact&#39;,&#39;Arial Black&#39;,sans-serif" font-size="10" fill="#ffffff" letter-spacing="1.8">
      RT SCORE
    </text>
  </g>
  
  <rect x="24" y="298" width="122" height="98" rx="3" ry="3" fill="#11172e" stroke="#2a3358" stroke-width="1" stroke-dasharray="3 4"></rect>
  
  <g fill="#FFD60A" stroke="#000" stroke-width="1">
    <circle cx="24" cy="298" r="1.7"></circle>
    <circle cx="146" cy="298" r="1.7"></circle>
    <circle cx="24" cy="396" r="1.7"></circle>
    <circle cx="146" cy="396" r="1.7"></circle>
  </g>

  
  <g filter="url(#ttPanelShadow)">
    <rect x="164" y="284" width="142" height="120" rx="6" ry="6" fill="#0d1226" stroke="#000000" stroke-width="3"></rect>
    <rect x="168" y="288" width="134" height="112" rx="4" ry="4" fill="none" stroke="#FF2D92" stroke-width="1.5"></rect>
  </g>
  <g transform="translate(172, 278)">
    <polygon points="0,0 90,0 98,14 0,14" fill="#FF2D92" stroke="#000" stroke-width="1.5"></polygon>
    <text x="6" y="10" font-family="&#39;Bangers&#39;,&#39;Anton&#39;,&#39;Impact&#39;,&#39;Arial Black&#39;,sans-serif" font-size="10" fill="#ffffff" letter-spacing="1.8">
      AUDIENCE
    </text>
  </g>
  <rect x="174" y="298" width="122" height="98" rx="3" ry="3" fill="#11172e" stroke="#2a3358" stroke-width="1" stroke-dasharray="3 4"></rect>
  <g fill="#FFD60A" stroke="#000" stroke-width="1">
    <circle cx="174" cy="298" r="1.7"></circle>
    <circle cx="296" cy="298" r="1.7"></circle>
    <circle cx="174" cy="396" r="1.7"></circle>
    <circle cx="296" cy="396" r="1.7"></circle>
  </g>

  
  <g transform="translate(290, 28)" opacity="0.98">
    <polygon points="&#xA;      0,-18  6,-9  17,-13  11,-4  24,-1  12,2  18,12  6,9  6,20  -1,10&#xA;      -12,16 -9,5 -22,5 -10,0 -18,-9 -7,-7 -7,-18 0,-10&#xA;    " fill="#00D4FF" stroke="#FF2D92" stroke-width="2.2" stroke-linejoin="miter"></polygon>
    <polygon points="0,-7 2,-2 8,0 2,2 0,7 -2,2 -8,0 -2,-2" fill="#ffffff"></polygon>
  </g>
</svg>